<svg width="39" height="25" viewBox="0 0 39 25" fill="none" xmlns="http://www.w3.org/2000/svg">
<path d="M9.696 0C6.59577 0 4.08253 2.93149 4.08253 6.54762L0 22.3214C0 23.8008 1.02814 25 2.29642 25C4.34413 24.6858 7.77709 19.3215 11.2269 16.0714C12.7502 16.0714 14.0004 14.79 14.241 13.0952H24.543C24.7836 14.79 26.0338 16.0714 27.5571 16.0714C31.0069 19.3215 34.4399 24.6858 36.4876 25C37.7559 25 38.784 23.8008 38.784 22.3214L34.7015 6.54762C34.7015 2.93149 32.1882 0 29.088 0C26.9057 0 25.0093 1.45 24.0805 3.57143H14.7035C13.7747 1.45 11.8783 0 9.696 0ZM9.696 3.57143C10.2597 3.57143 10.7166 4.1044 10.7166 4.7619V6.54762H12.2476C12.8113 6.54762 13.2682 7.0806 13.2682 7.7381C13.2682 8.3956 12.8113 8.92857 12.2476 8.92857H10.7166V10.7143C10.7166 11.3718 10.2597 11.9048 9.696 11.9048C9.1323 11.9048 8.67537 11.3718 8.67537 10.7143V8.92857H7.14442C6.58074 8.92857 6.12379 8.3956 6.12379 7.7381C6.12379 7.0806 6.58074 6.54762 7.14442 6.54762H8.67537V4.7619C8.67537 4.1044 9.1323 3.57143 9.696 3.57143ZM29.088 3.57143C29.6516 3.57143 30.1086 4.1044 30.1086 4.7619C30.1086 5.4194 29.6516 5.95238 29.088 5.95238C28.5243 5.95238 28.0674 5.4194 28.0674 4.7619C28.0674 4.1044 28.5243 3.57143 29.088 3.57143ZM26.5364 6.54762C27.1001 6.54762 27.5571 7.0806 27.5571 7.7381C27.5571 8.39554 27.1001 8.92857 26.5364 8.92857C25.9727 8.92857 25.5158 8.39554 25.5158 7.7381C25.5158 7.0806 25.9727 6.54762 26.5364 6.54762ZM31.6396 6.54762C32.2033 6.54762 32.6602 7.0806 32.6602 7.7381C32.6602 8.39554 32.2033 8.92857 31.6396 8.92857C31.0759 8.92857 30.6189 8.39554 30.6189 7.7381C30.6189 7.0806 31.0759 6.54762 31.6396 6.54762ZM29.088 9.52381C29.6516 9.52381 30.1086 10.0568 30.1086 10.7143C30.1086 11.3718 29.6516 11.9048 29.088 11.9048C28.5243 11.9048 28.0674 11.3718 28.0674 10.7143C28.0674 10.0568 28.5243 9.52381 29.088 9.52381Z" fill="#A596C6"/>
</svg>
