<svg width="30" height="30" viewBox="0 0 30 30" fill="none" xmlns="http://www.w3.org/2000/svg">
<path d="M11.0646 13.5132C11.8301 13.5132 12.4506 12.8927 12.4506 12.1272C12.4506 11.3617 11.8301 10.7412 11.0646 10.7412C10.2991 10.7412 9.67859 11.3617 9.67859 12.1272C9.67859 12.8927 10.2991 13.5132 11.0646 13.5132Z" fill="#A596C6"/>
<path d="M16.1472 1.5C12.1716 1.5 8.17409 3.9384 6.24569 7.4697C6.04829 7.5966 5.82689 7.7463 5.58269 7.9185C3.28169 9.8334 1.83899 12.5313 1.83899 15.5295C1.83899 18.8934 3.65009 21.879 6.45959 23.8041V27.609C6.45959 28.4013 6.93749 28.7505 7.66619 28.302L11.6394 25.8558C12.3573 25.9731 13.0959 26.0412 13.8528 26.0415C16.8753 26.0415 18.9621 25.0587 20.8704 23.4456L22.6758 24.4911C23.6649 25.0638 24.4647 24.8505 24.4647 23.6133V20.2863C26.8794 18.2301 28.1613 15.3753 28.1613 12.012C28.161 6.2064 22.7907 1.5 16.1472 1.5ZM13.8525 24.4242C13.0272 24.4242 12.2298 24.3297 11.4615 24.1701L8.30759 26.2722V22.9974C5.52809 21.4311 3.68729 18.726 3.68759 15.645C3.68759 14.0229 4.20329 12.5073 5.09399 11.2047C5.07029 11.4711 5.05799 11.7405 5.05799 12.012C5.05799 17.8173 9.51209 22.7547 16.1472 22.7547C16.9041 22.7547 18.537 22.6278 19.2552 22.5102C17.5176 23.7051 16.2462 24.4242 13.8525 24.4242ZM22.6161 19.4793V22.755L19.4622 20.6526C18.6945 20.8125 16.9725 20.9067 16.1475 20.9067C10.5336 20.9067 6.90629 16.9764 6.90629 12.1275C6.90629 7.2798 11.5518 3.348 16.1475 3.3486C21.9204 3.3486 26.3127 7.2795 26.3127 12.1272C26.3127 15.2085 24.87 17.6505 22.6161 19.4793Z" fill="#A596C6"/>
<path d="M22.1541 13.5132C22.9195 13.5132 23.5401 12.8927 23.5401 12.1272C23.5401 11.3617 22.9195 10.7412 22.1541 10.7412C21.3886 10.7412 20.7681 11.3617 20.7681 12.1272C20.7681 12.8927 21.3886 13.5132 22.1541 13.5132Z" fill="#A596C6"/>
<path d="M16.6095 13.5135C17.3751 13.5135 17.9958 12.8928 17.9958 12.1272C17.9958 11.3616 17.3751 10.7409 16.6095 10.7409C15.8439 10.7409 15.2232 11.3616 15.2232 12.1272C15.2232 12.8928 15.8439 13.5135 16.6095 13.5135Z" fill="#A596C6"/>
</svg>
