<svg width="28" height="29" viewBox="0 0 28 29" fill="none" xmlns="http://www.w3.org/2000/svg">
<g clip-path="url(#clip0)">
<path d="M19.8334 15.08C19.2531 15.1013 18.6786 14.9586 18.1767 14.6682L17.955 14.8016C16.7335 15.46 15.3661 15.8048 13.9767 15.8048C12.5873 15.8048 11.2198 15.46 9.99835 14.8016L9.77668 14.6682C9.28835 14.9501 8.73124 15.0926 8.16668 15.08C5.69335 15.08 0.309186 14.1636 1.26585 23.9888C1.26585 23.9888 1.88418 27.84 14 27.84C26.1158 27.84 26.7342 23.9888 26.7342 23.9888C27.685 14.1636 22.3067 15.08 19.8334 15.08ZM18.8942 25.23C15.675 26.1058 12.2783 26.1058 9.05918 25.23V19.8302C12.2783 20.706 15.675 20.706 18.8942 19.8302V25.23Z" fill="#A596C6"/>
<path d="M10.4183 14.0534C11.8663 14.8359 13.5327 15.1241 15.1614 14.8737C16.7901 14.6233 18.2911 13.8483 19.4339 12.6675C20.5766 11.4868 21.2979 9.96565 21.487 8.33781C21.676 6.70998 21.3224 5.06545 20.4803 3.65683C19.6383 2.2482 18.3544 1.15338 16.826 0.540532C15.2975 -0.0723189 13.609 -0.169308 12.0197 0.264463C10.4304 0.698233 9.02831 1.63877 8.02873 2.94162C7.02916 4.24446 6.48739 5.83756 6.48665 7.47621C6.48354 8.82335 6.84743 10.1462 7.53967 11.3042C8.23192 12.4623 9.22668 13.4123 10.4183 14.0534V14.0534ZM9.38582 3.90341H18.6083V8.70001C15.6459 9.86579 12.3482 9.86579 9.38582 8.70001V3.90341Z" fill="#A596C6"/>
<path d="M17.71 23.5248H16.1292V24.3484H17.71V23.5248Z" fill="#A596C6"/>
<path d="M17.71 22.4344H16.1292V23.258H17.71V22.4344Z" fill="#A596C6"/>
<path d="M17.71 21.344H16.1292V22.1676H17.71V21.344Z" fill="#A596C6"/>
<path d="M13.0375 22.8404C13.0363 23.0577 13.1002 23.2704 13.2209 23.4516C13.3416 23.6328 13.5137 23.7742 13.7154 23.8578C13.9171 23.9415 14.1392 23.9637 14.3536 23.9216C14.568 23.8795 14.765 23.775 14.9196 23.6213C15.0741 23.4677 15.1792 23.2718 15.2216 23.0586C15.2639 22.8455 15.2416 22.6246 15.1574 22.424C15.0733 22.2235 14.9311 22.0524 14.7489 21.9323C14.5667 21.8123 14.3527 21.7489 14.1342 21.75C13.8438 21.7515 13.5657 21.8669 13.3604 22.0711C13.1551 22.2752 13.039 22.5517 13.0375 22.8404V22.8404Z" fill="#A596C6"/>
<path d="M11.6842 21.1816H11.0659V24.418H11.6842V21.1816Z" fill="#A596C6"/>
</g>
<defs>
<clipPath id="clip0">
<rect width="28" height="29" fill="white"/>
</clipPath>
</defs>
</svg>
