<svg width="22" height="25" viewBox="0 0 22 25" fill="none" xmlns="http://www.w3.org/2000/svg">
<path d="M20.951 11.0567H18.7964C18.3428 9.46907 16.8969 8.3067 15.1959 8.3067C13.4948 8.3067 12.049 9.49742 11.567 11.0567H1.04897C0.481959 11.0567 0 11.5103 0 12.1057C0 12.6727 0.453608 13.1546 1.04897 13.1546H11.567C12.0206 14.7423 13.4665 15.9046 15.1675 15.9046C16.8686 15.9046 18.3144 14.7423 18.768 13.1546H20.9227C21.4897 13.1546 21.9716 12.701 21.9716 12.1057C22 11.5387 21.5464 11.0567 20.951 11.0567ZM15.1959 13.8067C14.2887 13.8067 13.4948 13.0696 13.4948 12.1057C13.4948 11.1418 14.232 10.4046 15.1959 10.4046C16.1598 10.4046 16.8969 11.1418 16.8969 12.1057C16.8969 13.0696 16.1031 13.8067 15.1959 13.8067Z" fill="#A596C6"/>
<path d="M1.04897 4.84794H3.28866C3.74227 6.43557 5.18814 7.59794 6.88917 7.59794C8.59021 7.59794 10.0361 6.43557 10.4897 4.84794H20.951C21.518 4.84794 22 4.39433 22 3.79897C22 3.20361 21.5464 2.75 20.951 2.75H10.4897C10.0361 1.16237 8.59021 0 6.88917 0C5.18814 0 3.74227 1.16237 3.28866 2.75H1.04897C0.481959 2.75 0 3.20361 0 3.79897C0 4.39433 0.453608 4.84794 1.04897 4.84794ZM6.88917 2.09794C7.79639 2.09794 8.59021 2.83505 8.59021 3.79897C8.59021 4.76289 7.85309 5.5 6.88917 5.5C5.92526 5.5 5.18814 4.70619 5.18814 3.79897C5.18814 2.89175 5.98196 2.09794 6.88917 2.09794Z" fill="#A596C6"/>
<path d="M20.951 19.3634H10.4897C10.0361 17.7758 8.59021 16.6134 6.88917 16.6134C5.18814 16.6134 3.74227 17.7758 3.28866 19.3634H1.04897C0.481959 19.3634 0 19.817 0 20.4124C0 21.0077 0.453608 21.4613 1.04897 21.4613H3.28866C3.74227 23.049 5.18814 24.2113 6.88917 24.2113C8.59021 24.2113 10.0361 23.049 10.4897 21.4613H20.951C21.518 21.4613 22 21.0077 22 20.4124C22 19.817 21.5464 19.3634 20.951 19.3634ZM6.88917 22.1134C5.98196 22.1134 5.18814 21.3763 5.18814 20.4124C5.18814 19.4485 5.92526 18.7113 6.88917 18.7113C7.85309 18.7113 8.59021 19.4485 8.59021 20.4124C8.59021 21.3763 7.79639 22.1134 6.88917 22.1134Z" fill="#A596C6"/>
</svg>
