<svg width="33" height="30" viewBox="0 0 33 30" fill="none" xmlns="http://www.w3.org/2000/svg">
<g clip-path="url(#clip0)">
<path d="M14.2527 22.3046C15.2449 22.8227 16.3669 23.1207 17.558 23.1207C18.7492 23.1207 19.8712 22.8227 20.8634 22.3045C20.4173 20.5104 19.1027 19.2423 17.5605 19.2423C16.0159 19.2423 14.6991 20.5105 14.2527 22.3046Z" fill="#A596C6"/>
<path d="M30.3772 5.7278C31.1088 5.7278 31.8411 5.44585 32.3987 4.88257C33.5133 3.75538 33.5133 1.92085 32.3987 0.793664C31.2829 -0.33414 29.4689 -0.332909 28.3556 0.793664C27.3924 1.76776 27.2657 3.26835 27.9673 4.38596L22.2143 10.204C20.9551 9.13237 19.3282 8.4831 17.558 8.4831C15.7877 8.4831 14.1608 9.13237 12.9017 10.204L9.43594 6.69278L9.43488 6.6917C10.1337 5.57452 10.0065 4.07642 9.04442 3.10344C7.93106 1.97749 6.11707 1.97626 5.00127 3.10344C3.8867 4.23063 3.8867 6.06516 5.00127 7.19235C5.55887 7.75625 6.29116 8.03758 7.02285 8.03758C7.55483 8.03758 8.08496 7.8843 8.54975 7.58692L8.55078 7.58796L12.0228 11.0929C10.9631 12.3663 10.3211 14.0116 10.3211 15.8019C10.3211 17.5922 10.9631 19.2312 12.029 20.5046L8.55577 24.0171C7.4499 23.3072 5.96595 23.4361 5.00371 24.4098C3.88914 25.537 3.88914 27.3715 5.00371 28.4987C5.56069 29.062 6.29299 29.344 7.02528 29.344C7.75697 29.344 8.48926 29.062 9.04685 28.4987C10.0091 27.5256 10.1362 26.0271 9.43701 24.9099L9.44214 24.9047L12.9079 21.3934C12.9889 21.4628 13.0699 21.5321 13.1572 21.5952C13.6684 19.9751 14.7841 18.7395 16.1555 18.2352C15.2828 17.7435 14.6906 16.7916 14.6906 15.7136C14.6906 14.1125 15.9747 12.8075 17.558 12.8075C19.1412 12.8075 20.4253 14.1125 20.4253 15.7136C20.4253 16.7916 19.8331 17.7435 18.9605 18.2352C20.338 18.7395 21.4476 19.9751 21.9587 21.5952C22.046 21.5321 22.127 21.4628 22.208 21.3934L26.5315 25.7659C25.8296 26.8835 25.9563 28.3845 26.9196 29.3587C27.4772 29.9226 28.2089 30.2046 28.9412 30.2046C29.6735 30.2046 30.4052 29.9226 30.9627 29.3587C32.0773 28.2315 32.0773 26.397 30.9627 25.2698C29.9989 24.2951 28.5157 24.167 27.4105 24.8771L23.0869 20.5046C24.1528 19.2312 24.7948 17.5922 24.7948 15.8019C24.7948 14.0116 24.1528 12.3663 23.0932 11.0929L28.846 5.2749C29.3118 5.57402 29.8436 5.7278 30.3772 5.7278ZM5.88271 6.30094C5.25389 5.66501 5.25389 4.63078 5.88271 3.99485C6.19742 3.6772 6.61013 3.51837 7.02285 3.51837C7.43617 3.51837 7.84889 3.6772 8.16299 3.99485C8.7918 4.63078 8.7918 5.66501 8.16299 6.30094C7.53478 6.93564 6.51213 6.93687 5.88271 6.30094ZM8.16542 27.6073C7.53539 28.2426 6.51274 28.242 5.88514 27.6073C5.25633 26.9714 5.25633 25.9372 5.88514 25.3012C6.19924 24.9836 6.61196 24.8247 7.02528 24.8247C7.438 24.8247 7.85132 24.9836 8.16542 25.3012C8.79423 25.9372 8.79423 26.9714 8.16542 27.6073ZM30.0813 26.1612C30.7101 26.7972 30.7101 27.8314 30.0813 28.4673C29.4531 29.1026 28.4292 29.1026 27.801 28.4673C27.1722 27.8314 27.1722 26.7972 27.801 26.1612C28.1151 25.8436 28.5285 25.6848 28.9412 25.6848C29.3539 25.6848 29.7672 25.8436 30.0813 26.1612ZM29.237 1.68507C29.5511 1.36742 29.9638 1.20859 30.3772 1.20859C30.7899 1.20859 31.2026 1.36741 31.5173 1.68507C32.1461 2.321 32.1461 3.35523 31.5173 3.99116C30.8867 4.62709 29.864 4.62586 29.237 3.99116C28.6082 3.35523 28.6082 2.321 29.237 1.68507Z" fill="#A596C6"/>
</g>
<defs>
<clipPath id="clip0">
<rect width="33" height="30" fill="white"/>
</clipPath>
</defs>
</svg>
