<svg width="90" height="90" viewBox="0 0 90 90" fill="none" xmlns="http://www.w3.org/2000/svg">
<path d="M88.3081 9.56299H86.715H86.6101V6.47599H85.2211H83.6301H83.5241V6.37099V3.96899V3.39099H82.1341H80.5431H80.4381V3.28399V1.39199V0.304993H52.7691V1.81399V3.28499V3.39099H49.6821V4.88099V6.37099V6.47599H46.5971V8.25499V9.45599V9.56199H45.3361H43.5101H43.4051V6.47499H42.5471H40.4251H40.3191V6.36999V5.96999V3.38999H37.2331V3.30499H37.2351L37.2441 0.324993H9.58405L9.56405 3.39099H9.45805H7.96905H6.47905V6.47499H3.37505V8.83699V9.45299V9.56299H3.28405H1.16105H0.305054V12.648V15.628V15.734V18.714V18.82V21.799V21.905V24.884V24.99V27.969V28.075V31.055V31.16V34.14V34.246V37.225V37.33V40.309V40.416V43.396V43.498V46.478H1.56905V46.482H3.39105V46.586V47.134V49.564H6.47705V49.568V49.675V52.655H9.56305V52.76V55.739H12.6491V55.844V56.4V56.797V58.834H15.7361V58.94V59.487V61.919H18.8211V62.023V63.086V65.003H21.9081V65.112V66.173V68.093H24.9941V68.197V69.259V71.174H28.0811V71.179V71.285V72.344V74.266H31.1661V74.37V75.431V77.352H34.2521V77.456V78.517V80.438H37.3391V80.543V81.603V83.524H40.4251V83.629V84.689V86.61H43.5111V89.695H46.4901V86.61H46.5971H48.4021H49.5771V85.66V83.63V83.525H52.6631V82.578V80.545V80.44H55.7481V79.32V77.459V77.355H58.8351V75.864V74.374V74.27H61.9211V72.78V71.29V71.179H65.0081V69.258V68.201V68.097H68.0931V66.388V65.117V65.008H71.1811V63.766V62.028V61.92H74.2661V60.431V58.942V58.836H77.3531V57.346V55.856V55.751H80.4391V54.905V52.77V52.665H83.5251V52.142V49.685V49.574H86.6111V48.69V46.596V46.492H87.7771V46.488H89.6971V43.508V43.406V40.426V40.319V37.34V37.235V34.256V34.15V31.17V31.065V28.085V27.979V25V24.894V21.915V21.809V18.83V18.724V15.744V15.638V12.658V9.57299H88.3081V9.56299ZM21.8001 6.37099H12.5421V6.38999V9.45699H9.45605V9.47699V12.543H6.37005V24.888H3.28405V12.562V12.542H4.14105V12.538H6.35405V12.542H6.37005V9.47299H6.35405V9.45199H6.47605V9.45599H9.45505V6.38999V6.37099H12.5411V3.30499H21.8001V6.37099Z" fill="black"/>
</svg>
